<svg xmlns="http://www.w3.org/2000/svg" viewBox="0 0 200 200">
  <rect x="10" y="10" width="180" height="180" rx="40" fill="#0e3d8a"/>
  <line x1="25" y1="108" x2="175" y2="108" stroke="#ffffff" stroke-width="1" opacity="0.15"/>
  <polyline points="175,100 28,100 28,23" fill="none" stroke="#ffffff" stroke-width="1.5" stroke-linecap="round" stroke-linejoin="round" opacity="0.6"/>
  <polyline points="25,30 28,23 31,30" fill="none" stroke="#ffffff" stroke-width="1.5" opacity="0.6"/>
  <polyline points="170,97 177,100 170,103" fill="none" stroke="#ffffff" stroke-width="1.5" opacity="0.6"/>
  <rect x="38"  y="80" width="18" height="18" rx="3" fill="#7eb8f5" opacity="0.7"/>
  <rect x="64"  y="63" width="18" height="35" rx="3" fill="#7eb8f5" opacity="0.85"/>
  <rect x="90"  y="46" width="18" height="52" rx="3" fill="#ffffff" opacity="0.7"/>
  <rect x="116" y="30" width="18" height="68" rx="3" fill="#ffffff" opacity="0.9"/>
  <g transform="translate(44.75,76.90) scale(0.055)">
    <path d="M 603.199219 945.867188 C 589.199219 949.332031 578.664062 958.132812 572.132812 972 L 568.667969 979.332031 L 568.269531 1060.933594 L 567.871094 1142.398438 L 532.9375 1142.933594 C 507.871094 1143.332031 496.671875 1144 493.335938 1145.332031 C 489.203125 1146.933594 459.203125 1164 416.003906 1189.464844 C 394.269531 1202.265625 387.738281 1209.597656 384.003906 1225.597656 C 382.136719 1233.730469 382.136719 1532.398438 384.136719 1541.0625 C 385.871094 1549.195312 392.9375 1557.996094 400.535156 1561.460938 C 405.070312 1563.59375 409.46875 1563.996094 427.601562 1563.996094 L 449.335938 1563.996094 L 450.269531 1567.597656 C 450.667969 1569.730469 453.335938 1581.199219 456.003906 1593.332031 L 460.804688 1615.332031 L 559.203125 1615.332031 L 564.003906 1593.332031 C 566.671875 1581.199219 569.335938 1569.597656 569.871094 1567.597656 L 570.671875 1563.996094 L 1989.335938 1563.996094 L 1990.136719 1567.597656 C 1990.671875 1569.597656 1993.335938 1581.199219 1996.003906 1593.332031 L 2000.804688 1615.332031 L 2099.203125 1615.332031 L 2104.003906 1593.332031 C 2106.671875 1581.199219 2109.335938 1569.730469 2109.738281 1567.597656 L 2110.671875 1563.996094 L 2132.40625 1563.996094 C 2150.539062 1563.996094 2154.941406 1563.597656 2159.472656 1561.460938 C 2166.539062 1558.261719 2174.007812 1549.328125 2175.871094 1541.996094 C 2177.738281 1534.261719 2177.871094 1233.996094 2176.003906 1225.597656 C 2172.269531 1209.597656 2165.738281 1202.265625 2144.003906 1189.464844 C 2100.804688 1164 2070.804688 1146.929688 2066.671875 1145.332031 C 2063.339844 1144 2052.136719 1143.332031 2027.070312 1142.933594 L 1992.136719 1142.398438 L 1991.738281 1060.933594 L 1991.339844 979.332031 L 1987.875 971.867188 C 1980.941406 957.199219 1969.609375 948.265625 1954.007812 945.332031 C 1948.140625 944.265625 1862.40625 944 1633.339844 944.265625 C 1343.472656 944.664062 1320.273438 944.800781 1314.273438 946.933594 C 1301.472656 951.46875 1287.207031 963.601562 1282.539062 973.867188 C 1281.605469 975.734375 1280.539062 977.332031 1280.003906 977.332031 C 1279.46875 977.332031 1278.402344 975.730469 1277.46875 973.867188 C 1272.800781 963.601562 1258.535156 951.601562 1245.734375 946.933594 C 1239.734375 944.800781 1216.667969 944.667969 924.667969 944.398438 C 677.066406 944.265625 608.535156 944.53125 603.203125 945.863281 Z M 1239.332031 955.332031 C 1254.796875 959.332031 1266.265625 969.730469 1272 984.796875 C 1274.667969 991.996094 1274.667969 994.664062 1274.667969 1120.53125 C 1274.667969 1236.265625 1274.402344 1249.730469 1272.402344 1255.863281 C 1269.734375 1264.398438 1263.070312 1272.261719 1255.335938 1275.996094 L 1249.335938 1278.929688 L 1242.9375 1275.195312 C 1233.605469 1269.59375 1227.070312 1266.660156 1216.671875 1263.59375 C 1207.339844 1260.792969 1206.671875 1260.792969 968.003906 1260.261719 C 725.203125 1259.863281 691.46875 1260.261719 657.46875 1264.796875 C 630.136719 1268.398438 608.269531 1273.996094 588.136719 1282.53125 C 581.335938 1285.464844 578.402344 1286.132812 578.003906 1284.929688 C 577.605469 1284.128906 577.46875 1215.464844 577.738281 1132.664062 L 578.003906 981.996094 L 581.070312 975.328125 C 586.136719 964.527344 592.402344 959.0625 604.671875 955.195312 C 608.9375 953.863281 674.136719 953.460938 920.671875 953.460938 C 1196.40625 953.328125 1232.40625 953.59375 1239.339844 955.328125 Z M 1960.664062 957.066406 C 1969.332031 961.066406 1975.0625 966.800781 1978.929688 975.199219 L 1981.996094 982 L 1982.261719 1132.667969 C 1982.527344 1215.46875 1982.394531 1284.132812 1981.996094 1284.933594 C 1981.597656 1286.132812 1978.664062 1285.46875 1971.863281 1282.535156 C 1951.730469 1274 1929.863281 1268.402344 1902.53125 1264.800781 C 1868.53125 1260.265625 1834.796875 1259.867188 1591.996094 1260.265625 C 1353.328125 1260.800781 1352.664062 1260.800781 1343.328125 1263.597656 C 1332.929688 1266.664062 1326.394531 1269.597656 1317.0625 1275.199219 L 1310.664062 1278.933594 L 1304.664062 1276 C 1296.929688 1272.265625 1290.265625 1264.398438 1287.597656 1255.867188 C 1285.597656 1249.734375 1285.332031 1236.265625 1285.332031 1120.535156 C 1285.332031 994.667969 1285.332031 992 1288 984.800781 C 1291.867188 974.800781 1297.464844 967.46875 1305.601562 962 C 1319.601562 952.800781 1294.402344 953.464844 1640.667969 953.734375 L 1954 954 L 1960.667969 957.066406 Z M 541.195312 1457.335938 C 551.195312 1459.203125 2008.796875 1459.203125 2018.796875 1457.335938 C 2022.664062 1456.535156 2028.261719 1454.402344 2030.929688 1452.667969 L 2035.996094 1449.335938 L 2035.996094 1554.671875 L 523.996094 1554.671875 L 523.996094 1449.335938 L 529.0625 1452.667969 C 531.730469 1454.402344 537.328125 1456.535156 541.195312 1457.335938 Z" fill="#ffffff" opacity="0.9"/>
  </g>
</svg>
